<?xml version="1.0" encoding="utf-8"?>
<!-- Generator: Adobe Illustrator 16.0.0, SVG Export Plug-In . SVG Version: 6.00 Build 0)  -->
<!DOCTYPE svg PUBLIC "-//W3C//DTD SVG 1.1//EN" "http://www.w3.org/Graphics/SVG/1.1/DTD/svg11.dtd">
<svg version="1.1" id="Layer_1" xmlns="http://www.w3.org/2000/svg" xmlns:xlink="http://www.w3.org/1999/xlink" x="0px" y="0px"
	 width="1000px" height="1000px" viewBox="0 0 1000 1000" enable-background="new 0 0 1000 1000" xml:space="preserve">
<g>
	<g>
		<path fill="#2C2D2D" d="M966.797,910.547L736.719,680.469c57.031-69.531,91.406-158.594,91.406-255.664
			c0-222.656-180.664-403.32-403.32-403.32c-222.852,0-403.32,180.664-403.32,403.32s180.469,403.32,403.32,403.32
			c97.07,0,185.938-34.18,255.469-91.211l230.078,229.883c15.625,15.625,40.82,15.625,56.445,0
			C982.422,951.367,982.422,925.977,966.797,910.547z M424.805,747.852c-178.32,0-323.242-144.922-323.242-323.047
			s144.922-323.242,323.242-323.242c178.125,0,323.242,145.117,323.242,323.242S602.93,747.852,424.805,747.852z"/>
	</g>
</g>
</svg>
