<?xml version="1.0" encoding="utf-8"?>
<!-- Generator: Adobe Illustrator 16.0.0, SVG Export Plug-In . SVG Version: 6.00 Build 0)  -->
<!DOCTYPE svg PUBLIC "-//W3C//DTD SVG 1.1//EN" "http://www.w3.org/Graphics/SVG/1.1/DTD/svg11.dtd">
<svg version="1.1" id="Layer_1" xmlns="http://www.w3.org/2000/svg" xmlns:xlink="http://www.w3.org/1999/xlink" x="0px" y="0px"
	 width="1074.5px" height="204.281px" viewBox="-12.229 0 1074.5 204.281" enable-background="new -12.229 0 1074.5 204.281"
	 xml:space="preserve">
<g opacity="0.3">
	<image overflow="visible" width="1121" height="277" xlink:href="7174D26B.png"  transform="matrix(1 0 0 1 -36.7295 -33.4685)">
	</image>
</g>
<path fill="#07A7EC" d="M23.399,42.64c6.165-9.822,15.206-14.736,27.119-14.736c11.915,0,21.737,4.155,29.472,12.463
	c7.734,8.309,11.602,19.022,11.602,32.137c0,13.117-3.867,23.855-11.602,32.216c-7.734,8.361-17.479,12.542-29.236,12.542
	s-20.876-5.277-27.354-15.836v40.042H1.296V29.157H23.4L23.399,42.64L23.399,42.64z M62.355,91.236
	c4.547-4.598,6.818-10.867,6.818-18.813c0-7.94-2.271-14.16-6.818-18.654c-4.547-4.493-9.903-6.741-16.068-6.741
	c-6.168,0-11.523,2.274-16.069,6.819C25.673,58.394,23.4,64.64,23.4,72.581c0,7.942,2.273,14.185,6.818,18.731
	c4.546,4.547,9.901,6.819,16.069,6.819C52.452,98.133,57.809,95.836,62.355,91.236z"/>
<path fill="#07A7EC" d="M101.154,116.005V0h22.105v116.005H101.154z"/>
<path fill="#07A7EC" d="M145.894,104.639c-7.786-8.409-11.678-19.147-11.678-32.215c0-13.063,3.864-23.749,11.602-32.058
	c7.732-8.309,17.558-12.463,29.472-12.463c11.913,0,21.005,4.914,27.276,14.736V29.157h21.946v86.848h-21.946v-14.581
	c-6.586,10.559-15.731,15.836-27.435,15.836C163.426,117.261,153.68,113.054,145.894,104.639z M195.667,91.314
	c4.598-4.547,6.898-10.789,6.898-18.731c0-7.941-2.301-14.188-6.898-18.734c-4.601-4.544-9.98-6.819-16.147-6.819
	c-6.166,0-11.521,2.249-16.066,6.741c-4.547,4.494-6.82,10.713-6.82,18.654c0,7.944,2.299,14.215,6.898,18.813
	c4.598,4.601,9.953,6.897,16.068,6.897C185.714,98.133,191.066,95.861,195.667,91.314z"/>
<path fill="#07A7EC" d="M256.699,29.157V42.17c5.538-9.509,14.524-14.268,26.964-14.268c9.927,0,18.026,3.27,24.298,9.8
	c6.271,6.531,9.404,15.596,9.404,27.196v51.105H295.42v-47.97c0-6.792-1.725-11.992-5.174-15.599
	c-3.449-3.604-8.15-5.409-14.109-5.409c-5.957,0-10.687,1.805-14.186,5.409c-3.504,3.606-5.252,8.807-5.252,15.599v47.97h-22.104
	V29.157H256.699z"/>
<path fill="#07A7EC" d="M337.822,104.639c-7.786-8.409-11.681-19.147-11.681-32.215c0-13.063,3.866-23.749,11.603-32.058
	c7.73-8.309,17.558-12.463,29.471-12.463c11.916,0,21.009,4.914,27.276,14.736V0h21.946v116.005h-21.946v-14.581
	c-6.585,10.559-15.729,15.836-27.431,15.836C355.354,117.261,345.607,113.054,337.822,104.639z M387.596,91.314
	c4.6-4.547,6.896-10.789,6.896-18.731c0-7.941-2.297-14.188-6.896-18.734c-4.6-4.544-9.981-6.819-16.147-6.819
	c-6.17,0-11.521,2.249-16.068,6.741c-4.545,4.494-6.817,10.713-6.817,18.654c0,7.944,2.298,14.215,6.896,18.813
	c4.6,4.601,9.957,6.897,16.072,6.897C377.641,98.133,382.996,95.861,387.596,91.314z"/>
<path fill="#07A7EC" d="M467.401,117.261c-12.647,0-22.941-4.101-30.885-12.308c-7.942-8.201-11.913-19.046-11.913-32.529
	c0-13.48,3.997-24.271,11.991-32.37c7.998-8.097,18.343-12.15,31.041-12.15c12.697,0,23.123,3.946,31.273,11.837
	c8.15,7.893,12.229,18.42,12.229,31.588c0,3.032-0.211,5.854-0.627,8.464h-63.333c0.521,5.644,2.608,10.191,6.271,13.639
	c3.654,3.451,8.308,5.174,13.951,5.174c7.628,0,13.271-3.137,16.931-9.405h23.826c-2.507,8.257-7.367,14.999-14.576,20.224
	C486.367,114.647,477.641,117.261,467.401,117.261z M481.9,51.731c-3.918-3.448-8.649-5.172-14.187-5.172
	c-5.542,0-10.166,1.724-13.875,5.172c-3.711,3.449-5.932,8.052-6.661,13.797h41.071C487.938,59.782,485.82,55.181,481.9,51.731z"/>
<path fill="#07A7EC" d="M530.629,105.032c-7.945-8.15-11.914-18.97-11.914-32.45c0-13.482,3.969-24.3,11.914-32.451
	c7.941-8.15,18.234-12.229,30.882-12.229c10.558,0,19.384,2.563,26.493,7.683c7.107,5.121,11.858,12.383,14.266,21.791h-23.826
	c-2.822-7.213-8.467-10.817-16.933-10.817c-6.376,0-11.366,2.327-14.969,6.976c-3.606,4.653-5.409,11.002-5.409,19.048
	c0,8.048,1.803,14.397,5.409,19.046c3.604,4.654,8.593,6.977,14.969,6.977c8.36,0,14.004-3.654,16.933-10.975h23.826
	c-2.507,9.093-7.343,16.306-14.498,21.635c-7.161,5.331-15.914,7.996-26.261,7.996C548.863,117.261,538.57,113.184,530.629,105.032z
	"/>
<path fill="#07A7EC" d="M621.582,104.876c-8.465-8.256-12.697-19.072-12.697-32.452c0-13.375,4.282-24.142,12.853-32.292
	c8.569-8.15,19.206-12.229,31.904-12.229c12.695,0,23.33,4.077,31.9,12.229c8.568,8.151,12.854,18.917,12.854,32.292
	c0,13.38-4.313,24.196-12.934,32.452c-8.622,8.256-19.311,12.385-32.059,12.385C640.654,117.261,630.047,113.132,621.582,104.876z
	 M653.405,98.604c6.165,0,11.467-2.272,15.912-6.82c4.439-4.544,6.661-10.974,6.661-19.281c0-8.309-2.195-14.709-6.585-19.204
	c-4.389-4.491-9.694-6.74-15.911-6.74c-6.219,0-11.471,2.249-15.756,6.74c-4.285,4.495-6.427,10.923-6.427,19.283
	c0,8.362,2.142,14.79,6.427,19.281C642.013,96.359,647.237,98.604,653.405,98.604z"/>
<path fill="#07A7EC" d="M731.587,29.157V42.17c5.539-9.509,14.525-14.268,26.965-14.268c9.927,0,18.026,3.27,24.299,9.8
	c6.271,6.531,9.403,15.596,9.403,27.196v51.105h-21.947v-47.97c0-6.792-1.723-11.992-5.173-15.599
	c-3.445-3.604-8.15-5.409-14.106-5.409c-5.957,0-10.688,1.805-14.188,5.409c-3.503,3.606-5.252,8.807-5.252,15.599v47.97h-22.104
	V29.157H731.587z"/>
<path fill="#07A7EC" d="M837.15,97.508h10.501v18.497H833.7c-8.885,0-15.73-2.037-20.533-6.112
	c-4.81-4.077-7.213-10.817-7.213-20.224V47.187h-9.248V29.157h9.248V7.681h22.104v21.478h19.438v18.029h-19.438v42.481
	c0,2.823,0.679,4.835,2.037,6.037C831.452,96.907,833.805,97.508,837.15,97.508z"/>
<path fill="#07A7EC" d="M918.339,29.157h22.104v86.848h-22.104v-13.169c-5.538,9.512-14.578,14.267-27.117,14.267
	c-9.827,0-17.873-3.264-24.145-9.799c-6.269-6.528-9.404-15.598-9.404-27.198V29.157h21.946v47.813
	c0,6.794,1.725,12.021,5.174,15.676c3.449,3.659,8.15,5.486,14.107,5.486s10.686-1.827,14.188-5.486
	c3.5-3.655,5.25-8.881,5.25-15.676V29.157L918.339,29.157z"/>
<path fill="#07A7EC" d="M974.026,29.157v15.363c5.854-11.077,14.315-16.618,25.396-16.618v22.574h-5.484
	c-6.584,0-11.551,1.646-14.896,4.938c-3.346,3.293-5.017,8.963-5.017,17.008v43.581h-22.104V29.157H974.026z"/>
<polygon fill="#07A7EC" points="1011.456,141.466 1011.456,29.157 1047.541,29.157 1033.559,141.466 "/>
<g>
	<g>
		<path fill="#07A7EC" stroke="#07A7EC" stroke-miterlimit="10" d="M20.107,159.762c2.045,1.895,3.066,4.319,3.066,7.275
			c0,2.958-0.989,5.391-2.967,7.301c-1.977,1.911-4.975,2.865-8.994,2.865H4.536v14.253H0V156.92h11.213
			C15.101,156.92,18.064,157.868,20.107,159.762z M4.536,173.615h6.677c2.492,0,4.344-0.572,5.557-1.719
			c1.213-1.146,1.818-2.75,1.818-4.809c0-4.354-2.459-6.528-7.375-6.528H4.536V173.615z"/>
		<path fill="#07A7EC" stroke="#07A7EC" stroke-miterlimit="10" d="M39.767,191.903c-3.92,0-7.11-1.294-9.567-3.886
			c-2.459-2.592-3.688-6.014-3.688-10.266s1.246-7.666,3.738-10.241c2.491-2.575,5.721-3.861,9.691-3.861
			c3.97,0,7.159,1.222,9.568,3.662c2.408,2.441,3.613,5.558,3.613,9.344c0,0.965-0.067,1.861-0.199,2.691H31.146
			c0.133,2.725,0.987,4.875,2.566,6.453c1.576,1.579,3.596,2.367,6.054,2.367c1.861,0,3.431-0.416,4.71-1.246
			c1.279-0.83,2.217-1.927,2.815-3.289h4.884c-0.863,2.393-2.351,4.369-4.461,5.931C45.605,191.124,42.957,191.903,39.767,191.903z
			 M45.896,169.753c-1.627-1.577-3.646-2.368-6.055-2.368c-2.409,0-4.41,0.773-6.006,2.319c-1.593,1.544-2.474,3.662-2.641,6.354
			h17.193C48.355,173.433,47.523,171.331,45.896,169.753z"/>
		<path fill="#07A7EC" stroke="#07A7EC" stroke-miterlimit="10" d="M62.79,164.097v4.437c1.86-3.257,4.834-4.884,8.921-4.884
			c3.021,0,5.548,1.006,7.574,3.016c2.026,2.01,3.039,4.875,3.039,8.596v16.196h-4.483v-15.449c0-2.757-0.665-4.85-1.993-6.278
			c-1.33-1.429-3.166-2.144-5.508-2.144c-2.342,0-4.187,0.715-5.531,2.144c-1.346,1.43-2.019,3.521-2.019,6.278v15.449h-4.534
			v-27.359L62.79,164.097L62.79,164.097z"/>
		<path fill="#07A7EC" stroke="#07A7EC" stroke-miterlimit="10" d="M98.022,187.768h3.737v3.688h-4.584
			c-4.752,0-7.127-2.342-7.127-7.027v-16.645h-3.537v-3.688h3.537v-6.778h4.584v6.778h7.078v3.688h-7.078v16.645
			c0,1.23,0.25,2.094,0.749,2.592C95.88,187.52,96.76,187.768,98.022,187.768z"/>
		<path fill="#07A7EC" stroke="#07A7EC" stroke-miterlimit="10" d="M110.78,164.097v4.635c1.626-3.389,4.401-5.082,8.321-5.082
			v4.732h-1.196c-2.325,0-4.095,0.607-5.306,1.819c-1.215,1.214-1.819,3.314-1.819,6.306v14.949h-4.536v-27.359H110.78z"/>
		<path fill="#07A7EC" stroke="#07A7EC" stroke-miterlimit="10" d="M143.371,164.097h4.535v27.359h-4.535v-4.387
			c-1.828,3.225-4.801,4.833-8.92,4.833c-3.023,0-5.55-1.003-7.574-3.015c-2.028-2.009-3.041-4.858-3.041-8.545v-16.247h4.485
			v15.499c0,2.724,0.673,4.809,2.019,6.254c1.345,1.445,3.182,2.168,5.506,2.168c2.326,0,4.161-0.723,5.508-2.168
			c1.345-1.445,2.018-3.53,2.018-6.254L143.371,164.097L143.371,164.097z"/>
		<path fill="#07A7EC" stroke="#07A7EC" stroke-miterlimit="10" d="M168.337,171.821c0-2.292,0.954-4.228,2.864-5.806
			c1.91-1.577,4.387-2.366,7.426-2.366c3.041,0,5.424,0.771,7.151,2.315c1.728,1.546,2.675,3.664,2.841,6.354h-4.685
			c-0.067-1.527-0.581-2.759-1.544-3.688c-0.965-0.93-2.301-1.396-4.012-1.396c-1.713,0-3.058,0.408-4.037,1.223
			c-0.98,0.813-1.471,1.859-1.471,3.139c0,1.28,0.557,2.269,1.67,2.966c1.113,0.697,2.459,1.204,4.037,1.521
			c1.577,0.314,3.155,0.682,4.734,1.097c1.576,0.416,2.923,1.196,4.036,2.342c1.112,1.146,1.67,2.774,1.67,4.885
			c0,2.109-0.956,3.888-2.866,5.331c-1.91,1.445-4.395,2.168-7.45,2.168c-3.058,0-5.507-0.764-7.351-2.291
			c-1.844-1.527-2.85-3.64-3.015-6.329h4.685c0.066,1.527,0.605,2.749,1.619,3.662c1.014,0.914,2.408,1.37,4.186,1.37
			c1.778,0,3.172-0.382,4.187-1.146c1.014-0.764,1.521-1.735,1.521-2.915c0-1.179-0.398-2.118-1.197-2.816
			c-0.797-0.696-1.793-1.178-2.99-1.443c-1.194-0.266-2.5-0.58-3.91-0.946c-1.413-0.366-2.716-0.757-3.912-1.172
			s-2.193-1.137-2.99-2.167C168.735,174.68,168.337,173.383,168.337,171.821z"/>
		<path fill="#07A7EC" stroke="#07A7EC" stroke-miterlimit="10" d="M204.018,187.768h3.738v3.688h-4.586
			c-4.75,0-7.126-2.342-7.126-7.027v-16.645h-3.538v-3.688h3.538v-6.778h4.585v6.778h7.076v3.688h-7.076v16.645
			c0,1.23,0.249,2.094,0.747,2.592C201.875,187.52,202.756,187.768,204.018,187.768z"/>
		<path fill="#07A7EC" stroke="#07A7EC" stroke-miterlimit="10" d="M231.525,164.097h4.535v27.359h-4.535v-4.387
			c-1.828,3.225-4.801,4.833-8.92,4.833c-3.023,0-5.55-1.003-7.574-3.015c-2.027-2.009-3.041-4.858-3.041-8.545v-16.247h4.485
			v15.499c0,2.724,0.673,4.809,2.019,6.254c1.345,1.445,3.182,2.168,5.507,2.168s4.161-0.723,5.507-2.168
			c1.345-1.445,2.018-3.53,2.018-6.254L231.525,164.097L231.525,164.097z"/>
		<path fill="#07A7EC" stroke="#07A7EC" stroke-miterlimit="10" d="M244.98,187.894c-2.492-2.675-3.738-6.097-3.738-10.268
			c0-4.167,1.238-7.54,3.713-10.115s5.59-3.861,9.344-3.861c2.326,0,4.361,0.549,6.105,1.645c1.744,1.097,3.064,2.524,3.961,4.285
			V154.58h4.586v36.876h-4.586v-5.581c-0.896,1.793-2.217,3.247-3.961,4.359c-1.744,1.112-3.779,1.668-6.105,1.668
			C250.578,191.903,247.473,190.567,244.98,187.894z M261.65,185.227c1.811-1.858,2.715-4.335,2.715-7.426
			c0-3.089-0.904-5.563-2.715-7.425c-1.811-1.86-3.988-2.791-6.529-2.791s-4.717,0.897-6.527,2.691
			c-1.811,1.793-2.717,4.235-2.717,7.324c0,3.09,0.914,5.6,2.74,7.525c1.828,1.927,4.004,2.891,6.529,2.891
			C257.671,188.018,259.84,187.088,261.65,185.227z"/>
		<path fill="#07A7EC" stroke="#07A7EC" stroke-miterlimit="10" d="M287.389,191.903c-3.92,0-7.109-1.294-9.567-3.886
			c-2.459-2.592-3.688-6.014-3.688-10.266s1.246-7.666,3.738-10.241c2.491-2.575,5.723-3.861,9.693-3.861
			c3.969,0,7.158,1.222,9.568,3.662c2.408,2.441,3.612,5.558,3.612,9.344c0,0.965-0.067,1.861-0.199,2.691h-21.778
			c0.133,2.725,0.988,4.875,2.567,6.453c1.577,1.579,3.595,2.367,6.054,2.367c1.86,0,3.431-0.416,4.71-1.246
			c1.278-0.83,2.218-1.927,2.815-3.289h4.883c-0.863,2.393-2.35,4.369-4.459,5.931C293.229,191.124,290.579,191.903,287.389,191.903
			z M293.52,169.753c-1.629-1.577-3.648-2.368-6.055-2.368c-2.41,0-4.411,0.773-6.006,2.319c-1.595,1.544-2.476,3.662-2.641,6.354
			h17.193C295.977,173.433,295.146,171.331,293.52,169.753z"/>
		<path fill="#07A7EC" stroke="#07A7EC" stroke-miterlimit="10" d="M310.412,164.097v4.437c1.859-3.257,4.834-4.884,8.92-4.884
			c3.023,0,5.548,1.006,7.576,3.016c2.024,2.01,3.039,4.875,3.039,8.596v16.196h-4.485v-15.449c0-2.757-0.665-4.85-1.993-6.278
			c-1.329-1.429-3.164-2.144-5.506-2.144c-2.344,0-4.188,0.715-5.531,2.144c-1.348,1.43-2.02,3.521-2.02,6.278v15.449h-4.535
			v-27.359L310.412,164.097L310.412,164.097z"/>
		<path fill="#07A7EC" stroke="#07A7EC" stroke-miterlimit="10" d="M345.645,187.768h3.738v3.688h-4.586
			c-4.75,0-7.127-2.342-7.127-7.027v-16.645h-3.537v-3.688h3.537v-6.778h4.586v6.778h7.076v3.688h-7.076v16.645
			c0,1.23,0.248,2.094,0.747,2.592C343.501,187.52,344.382,187.768,345.645,187.768z M339.365,193.849h4.535
			c0.397,1.729,0.598,3.255,0.598,4.584c0,3.755-1.695,5.631-5.082,5.631v-2.19c1.594,0,2.391-0.864,2.391-2.592v-1.146h-2.44
			L339.365,193.849L339.365,193.849z"/>
		<path fill="#07A7EC" stroke="#07A7EC" stroke-miterlimit="10" d="M358.352,158.815c-0.598,0.599-1.33,0.896-2.191,0.896
			c-0.864,0-1.587-0.298-2.169-0.896c-0.581-0.598-0.872-1.33-0.872-2.192c0-0.864,0.3-1.596,0.896-2.192
			c0.599-0.599,1.322-0.896,2.168-0.896c0.848,0,1.57,0.299,2.168,0.896c0.599,0.598,0.896,1.328,0.896,2.192
			C359.248,157.485,358.949,158.218,358.352,158.815z M353.867,191.456v-27.359h4.534v27.359H353.867z"/>
		<path fill="#07A7EC" stroke="#07A7EC" stroke-miterlimit="10" d="M363.585,188.117h4.634c1.66,6.977,0.166,10.466-4.483,10.466
			v-2.193c0.829,0,1.436-0.199,1.817-0.598c0.382-0.399,0.573-1.03,0.573-1.896v-1.146h-2.541V188.117z"/>
		<path fill="#07A7EC" stroke="#07A7EC" stroke-miterlimit="10" d="M400.061,191.903c-3.92,0-7.108-1.294-9.566-3.886
			c-2.46-2.592-3.688-6.014-3.688-10.266s1.244-7.666,3.736-10.241s5.723-3.861,9.693-3.861c3.969,0,7.157,1.222,9.566,3.662
			c2.409,2.441,3.612,5.558,3.612,9.344c0,0.965-0.066,1.861-0.199,2.691H391.44c0.133,2.725,0.986,4.875,2.564,6.453
			c1.578,1.579,3.599,2.367,6.055,2.367c1.861,0,3.432-0.416,4.71-1.246c1.279-0.83,2.219-1.927,2.815-3.289h4.885
			c-0.864,2.393-2.352,4.369-4.461,5.931C405.9,191.124,403.251,191.903,400.061,191.903z M406.19,169.753
			c-1.628-1.577-3.646-2.368-6.055-2.368c-2.409,0-4.411,0.773-6.006,2.319c-1.594,1.544-2.475,3.662-2.641,6.354h17.191
			C408.65,173.433,407.818,171.331,406.19,169.753z"/>
		<path fill="#07A7EC" stroke="#07A7EC" stroke-miterlimit="10" d="M418.55,191.456V154.58h4.534v36.876H418.55z"/>
		<path fill="#07A7EC" stroke="#07A7EC" stroke-miterlimit="10" d="M441.521,191.903c-3.921,0-7.109-1.294-9.566-3.886
			c-2.46-2.592-3.688-6.014-3.688-10.266s1.246-7.666,3.737-10.241c2.492-2.575,5.722-3.861,9.692-3.861
			c3.969,0,7.159,1.222,9.567,3.662c2.408,2.441,3.613,5.558,3.613,9.344c0,0.965-0.066,1.861-0.199,2.691h-21.776
			c0.133,2.725,0.985,4.875,2.564,6.453c1.577,1.579,3.597,2.367,6.056,2.367c1.859,0,3.431-0.416,4.709-1.246
			c1.277-0.83,2.218-1.927,2.815-3.289h4.884c-0.862,2.393-2.352,4.369-4.461,5.931C447.36,191.124,444.713,191.903,441.521,191.903
			z M447.652,169.753c-1.628-1.577-3.646-2.368-6.056-2.368s-4.409,0.773-6.006,2.319c-1.593,1.544-2.474,3.662-2.641,6.354h17.192
			C450.11,173.433,449.279,171.331,447.652,169.753z"/>
		<path fill="#07A7EC" stroke="#07A7EC" stroke-miterlimit="10" d="M456.871,164.097h4.833l8.372,23.124l8.422-23.124h4.885
			l-10.715,27.359h-5.133L456.871,164.097z"/>
		<path fill="#07A7EC" stroke="#07A7EC" stroke-miterlimit="10" d="M491.705,158.815c-0.598,0.599-1.33,0.896-2.192,0.896
			c-0.863,0-1.587-0.298-2.169-0.896c-0.582-0.598-0.871-1.33-0.871-2.192c0-0.864,0.299-1.596,0.897-2.192
			c0.599-0.599,1.32-0.896,2.167-0.896c0.848,0,1.57,0.299,2.168,0.896c0.599,0.598,0.896,1.328,0.896,2.192
			C492.604,157.485,492.304,158.218,491.705,158.815z M487.22,191.456v-27.359h4.534v27.359H487.22z"/>
		<path fill="#07A7EC" stroke="#07A7EC" stroke-miterlimit="10" d="M512.188,171.821c0-2.292,0.953-4.228,2.865-5.806
			c1.91-1.577,4.386-2.366,7.427-2.366c3.038,0,5.422,0.771,7.149,2.315c1.728,1.546,2.674,3.664,2.84,6.354h-4.685
			c-0.067-1.527-0.581-2.759-1.544-3.688c-0.965-0.93-2.301-1.396-4.012-1.396s-3.059,0.408-4.037,1.223
			c-0.98,0.813-1.472,1.859-1.472,3.139c0,1.28,0.558,2.269,1.67,2.966c1.113,0.697,2.459,1.204,4.037,1.521
			c1.577,0.314,3.155,0.682,4.734,1.097c1.576,0.416,2.924,1.196,4.035,2.342c1.112,1.146,1.671,2.774,1.671,4.885
			c0,2.109-0.956,3.888-2.866,5.331c-1.91,1.445-4.393,2.168-7.45,2.168c-3.056,0-5.505-0.764-7.351-2.291
			c-1.844-1.527-2.849-3.64-3.016-6.329h4.686c0.065,1.527,0.604,2.749,1.619,3.662c1.014,0.914,2.409,1.37,4.188,1.37
			c1.775,0,3.172-0.382,4.186-1.146s1.521-1.735,1.521-2.915c0-1.179-0.398-2.118-1.197-2.816c-0.797-0.696-1.792-1.178-2.987-1.443
			c-1.196-0.266-2.5-0.58-3.912-0.946c-1.413-0.366-2.717-0.757-3.912-1.172c-1.196-0.415-2.193-1.137-2.99-2.167
			C512.585,174.68,512.188,173.383,512.188,171.821z M520.11,193.849h4.533c0.399,1.76,0.6,3.288,0.6,4.584
			c0,3.755-1.694,5.631-5.083,5.631v-2.19c1.594,0,2.392-0.864,2.392-2.592v-1.146h-2.44L520.11,193.849L520.11,193.849z"/>
		<path fill="#07A7EC" stroke="#07A7EC" stroke-miterlimit="10" d="M543.382,158.815c-0.598,0.599-1.329,0.896-2.191,0.896
			c-0.864,0-1.587-0.298-2.169-0.896c-0.581-0.598-0.871-1.33-0.871-2.192c0-0.864,0.299-1.596,0.896-2.192
			c0.598-0.599,1.32-0.896,2.167-0.896c0.849,0,1.57,0.299,2.168,0.896c0.6,0.598,0.897,1.328,0.897,2.192
			C544.279,157.485,543.98,158.218,543.382,158.815z M538.896,191.456v-27.359h4.534v27.359H538.896z"/>
		<path fill="#07A7EC" stroke="#07A7EC" stroke-miterlimit="10" d="M566.827,188.018c-2.51-2.592-3.763-5.997-3.763-10.217
			c0-4.219,1.313-7.633,3.937-10.241c2.625-2.606,5.914-3.91,9.868-3.91c3.953,0,7.241,1.304,9.867,3.91
			c2.623,2.608,3.937,6.015,3.937,10.217c0,4.203-1.371,7.608-4.11,10.218c-2.74,2.608-6.09,3.909-10.043,3.909
			C572.565,191.903,569.335,190.609,566.827,188.018z M576.52,188.167c2.559,0,4.775-0.922,6.653-2.767
			c1.877-1.845,2.815-4.395,2.815-7.648s-0.897-5.798-2.69-7.625c-1.794-1.827-3.979-2.742-6.554-2.742
			c-2.574,0-4.728,0.915-6.454,2.742s-2.591,4.378-2.591,7.648c0,3.273,0.83,5.822,2.491,7.649
			C571.854,187.253,573.961,188.167,576.52,188.167z"/>
		<path fill="#07A7EC" stroke="#07A7EC" stroke-miterlimit="10" d="M600.39,164.097v4.635c1.628-3.389,4.402-5.082,8.323-5.082
			v4.732h-1.196c-2.324,0-4.096,0.607-5.308,1.819c-1.213,1.214-1.819,3.314-1.819,6.306v14.949h-4.533v-27.359H600.39z"/>
		<path fill="#07A7EC" stroke="#07A7EC" stroke-miterlimit="10" d="M618.181,158.815c-0.598,0.599-1.33,0.896-2.191,0.896
			c-0.864,0-1.587-0.298-2.169-0.896c-0.582-0.598-0.871-1.33-0.871-2.192c0-0.864,0.299-1.596,0.896-2.192
			c0.599-0.599,1.32-0.896,2.167-0.896c0.849,0,1.57,0.299,2.168,0.896c0.6,0.598,0.897,1.328,0.897,2.192
			C619.078,157.485,618.779,158.218,618.181,158.815z M613.695,191.456v-27.359h4.533v27.359H613.695z"/>
		<path fill="#07A7EC" stroke="#07A7EC" stroke-miterlimit="10" d="M627.102,188.018c-2.459-2.592-3.688-6.005-3.688-10.241
			c0-4.234,1.229-7.648,3.688-10.24c2.458-2.593,5.647-3.887,9.568-3.887c3.289,0,5.971,0.766,8.048,2.291
			c2.075,1.529,3.529,3.706,4.361,6.528h-4.885c-0.532-1.594-1.444-2.84-2.74-3.737c-1.296-0.896-2.892-1.347-4.784-1.347
			c-2.593,0-4.677,0.907-6.254,2.718c-1.579,1.812-2.368,4.369-2.368,7.674c0,3.307,0.789,5.863,2.368,7.675
			c1.577,1.813,3.661,2.717,6.254,2.717c3.887,0,6.396-1.695,7.524-5.083h4.885c-0.832,2.69-2.302,4.834-4.41,6.429
			c-2.111,1.596-4.777,2.392-7.999,2.392C632.749,191.903,629.56,190.609,627.102,188.018z"/>
		<path fill="#07A7EC" stroke="#07A7EC" stroke-miterlimit="10" d="M659.095,158.815c-0.598,0.599-1.33,0.896-2.192,0.896
			c-0.864,0-1.586-0.298-2.168-0.896c-0.582-0.598-0.871-1.33-0.871-2.192c0-0.864,0.299-1.596,0.896-2.192
			c0.599-0.599,1.32-0.896,2.167-0.896c0.849,0,1.57,0.299,2.168,0.896c0.599,0.598,0.897,1.328,0.897,2.192
			C659.992,157.485,659.692,158.218,659.095,158.815z M654.609,191.456v-27.359h4.533v27.359H654.609z"/>
		<path fill="#07A7EC" stroke="#07A7EC" stroke-miterlimit="10" d="M670.655,164.097v4.437c1.86-3.257,4.834-4.884,8.92-4.884
			c3.022,0,5.549,1.006,7.575,3.016c2.025,2.01,3.039,4.875,3.039,8.596v16.196h-4.484v-15.449c0-2.757-0.665-4.85-1.993-6.278
			c-1.329-1.429-3.164-2.144-5.507-2.144c-2.342,0-4.186,0.715-5.532,2.144c-1.345,1.43-2.018,3.521-2.018,6.278v15.449h-4.535
			v-27.359L670.655,164.097L670.655,164.097z"/>
		<path fill="#07A7EC" stroke="#07A7EC" stroke-miterlimit="10" d="M708.38,191.903c-3.921,0-7.111-1.294-9.567-3.886
			c-2.459-2.592-3.688-6.014-3.688-10.266s1.247-7.666,3.737-10.241c2.492-2.575,5.723-3.861,9.692-3.861
			c3.971,0,7.159,1.222,9.568,3.662c2.408,2.441,3.613,5.558,3.613,9.344c0,0.965-0.067,1.861-0.199,2.691h-21.778
			c0.132,2.725,0.988,4.875,2.566,6.453c1.577,1.579,3.596,2.367,6.056,2.367c1.859,0,3.43-0.416,4.709-1.246
			c1.278-0.83,2.218-1.927,2.815-3.289h4.885c-0.864,2.393-2.352,4.369-4.461,5.931C714.218,191.124,711.569,191.903,708.38,191.903
			z M714.509,169.753c-1.627-1.577-3.646-2.368-6.055-2.368c-2.408,0-4.41,0.773-6.005,2.319c-1.596,1.544-2.477,3.662-2.642,6.354
			H717C716.967,173.433,716.137,171.331,714.509,169.753z"/>
		<path fill="#07A7EC" stroke="#07A7EC" stroke-miterlimit="10" d="M743.262,187.894c-2.489-2.675-3.736-6.097-3.736-10.268
			c0-4.167,1.236-7.54,3.713-10.115c2.475-2.575,5.589-3.861,9.344-3.861c2.326,0,4.361,0.549,6.105,1.645
			c1.743,1.097,3.063,2.524,3.961,4.285v-5.481h4.586v27.359h-4.586v-5.581c-0.896,1.793-2.218,3.247-3.961,4.359
			c-1.744,1.112-3.779,1.668-6.105,1.668C748.86,191.903,745.754,190.567,743.262,187.894z M759.932,185.227
			c1.812-1.858,2.717-4.335,2.717-7.426c0-3.089-0.905-5.563-2.717-7.425c-1.811-1.86-3.984-2.791-6.527-2.791
			c-2.541,0-4.719,0.897-6.528,2.691c-1.811,1.793-2.716,4.235-2.716,7.324c0,3.09,0.913,5.6,2.742,7.525
			c1.824,1.927,4.002,2.891,6.527,2.891C755.952,188.018,758.121,187.088,759.932,185.227z"/>
		<path fill="#07A7EC" stroke="#07A7EC" stroke-miterlimit="10" d="M778.744,164.097v4.635c1.628-3.389,4.402-5.082,8.322-5.082
			v4.732h-1.195c-2.326,0-4.096,0.607-5.308,1.819c-1.214,1.214-1.819,3.314-1.819,6.306v14.949h-4.535v-27.359H778.744z"/>
		<path fill="#07A7EC" stroke="#07A7EC" stroke-miterlimit="10" d="M803.512,191.903c-3.921,0-7.109-1.294-9.567-3.886
			c-2.459-2.592-3.688-6.014-3.688-10.266s1.247-7.666,3.737-10.241c2.492-2.575,5.723-3.861,9.694-3.861
			c3.969,0,7.158,1.222,9.566,3.662c2.409,2.441,3.613,5.558,3.613,9.344c0,0.965-0.067,1.861-0.199,2.691H794.89
			c0.134,2.725,0.988,4.875,2.567,6.453c1.577,1.579,3.595,2.367,6.055,2.367c1.859,0,3.431-0.416,4.709-1.246
			s2.219-1.927,2.815-3.289h4.885c-0.864,2.393-2.352,4.369-4.461,5.931C809.351,191.124,806.701,191.903,803.512,191.903z
			 M809.641,169.753c-1.627-1.577-3.646-2.368-6.054-2.368c-2.409,0-4.411,0.773-6.006,2.319c-1.595,1.544-2.476,3.662-2.641,6.354
			h17.191C812.099,173.433,811.269,171.331,809.641,169.753z"/>
		<path fill="#07A7EC" stroke="#07A7EC" stroke-miterlimit="10" d="M840.985,164.097v4.437c1.86-3.257,4.834-4.884,8.921-4.884
			c3.022,0,5.548,1.006,7.574,3.016c2.025,2.01,3.039,4.875,3.039,8.596v16.196h-4.483v-15.449c0-2.757-0.665-4.85-1.994-6.278
			c-1.328-1.429-3.163-2.144-5.507-2.144c-2.342,0-4.186,0.715-5.531,2.144c-1.345,1.43-2.02,3.521-2.02,6.278v15.449h-4.533
			v-27.359L840.985,164.097L840.985,164.097z"/>
		<path fill="#07A7EC" stroke="#07A7EC" stroke-miterlimit="10" d="M878.71,191.903c-3.92,0-7.11-1.294-9.567-3.886
			c-2.459-2.592-3.688-6.014-3.688-10.266s1.246-7.666,3.737-10.241c2.49-2.575,5.723-3.861,9.692-3.861s7.159,1.222,9.567,3.662
			c2.409,2.441,3.613,5.558,3.613,9.344c0,0.965-0.066,1.861-0.199,2.691h-21.778c0.133,2.725,0.989,4.875,2.567,6.453
			c1.577,1.579,3.596,2.367,6.055,2.367c1.859,0,3.43-0.416,4.709-1.246c1.278-0.83,2.218-1.927,2.816-3.289h4.884
			c-0.864,2.393-2.352,4.369-4.461,5.931C884.549,191.124,881.898,191.903,878.71,191.903z M884.84,169.753
			c-1.628-1.577-3.646-2.368-6.055-2.368s-4.411,0.773-6.006,2.319c-1.596,1.544-2.477,3.662-2.642,6.354h17.193
			C887.298,173.433,886.468,171.331,884.84,169.753z"/>
		<path fill="#07A7EC" stroke="#07A7EC" stroke-miterlimit="10" d="M894.058,164.097h4.834l8.372,23.124l8.422-23.124h4.886
			l-10.716,27.359h-5.133L894.058,164.097z"/>
		<path fill="#07A7EC" stroke="#07A7EC" stroke-miterlimit="10" d="M926.376,188.018c-2.51-2.592-3.763-5.997-3.763-10.217
			c0-4.219,1.312-7.633,3.937-10.241c2.624-2.606,5.914-3.91,9.868-3.91c3.953,0,7.241,1.304,9.867,3.91
			c2.623,2.608,3.937,6.015,3.937,10.217c0,4.203-1.37,7.608-4.11,10.218c-2.74,2.608-6.09,3.909-10.042,3.909
			C932.114,191.903,928.884,190.609,926.376,188.018z M936.068,188.167c2.558,0,4.774-0.922,6.651-2.767
			c1.878-1.845,2.815-4.395,2.815-7.648s-0.896-5.798-2.689-7.625c-1.794-1.827-3.979-2.742-6.555-2.742
			c-2.573,0-4.727,0.915-6.453,2.742s-2.592,4.378-2.592,7.648c0,3.273,0.831,5.822,2.492,7.649
			C931.401,187.253,933.51,188.167,936.068,188.167z"/>
		<path fill="#07A7EC" stroke="#07A7EC" stroke-miterlimit="10" d="M959.888,158.815c-0.598,0.599-1.33,0.896-2.191,0.896
			c-0.864,0-1.587-0.298-2.169-0.896c-0.581-0.598-0.871-1.33-0.871-2.192c0-0.864,0.299-1.596,0.896-2.192
			c0.599-0.599,1.32-0.896,2.167-0.896c0.849,0,1.57,0.299,2.168,0.896c0.6,0.598,0.897,1.328,0.897,2.192
			C960.785,157.485,960.486,158.218,959.888,158.815z M955.402,191.456v-27.359h4.535v27.359H955.402z"/>
		<path fill="#07A7EC" stroke="#07A7EC" stroke-miterlimit="10" d="M978.377,191.903c-3.921,0-7.109-1.294-9.568-3.886
			s-3.688-6.014-3.688-10.266s1.246-7.666,3.736-10.241c2.492-2.575,5.724-3.861,9.693-3.861c3.969,0,7.159,1.222,9.567,3.662
			c2.409,2.441,3.612,5.558,3.612,9.344c0,0.965-0.066,1.861-0.198,2.691h-21.778c0.133,2.725,0.988,4.875,2.567,6.453
			c1.577,1.579,3.595,2.367,6.055,2.367c1.859,0,3.43-0.416,4.709-1.246c1.278-0.83,2.218-1.927,2.816-3.289h4.884
			c-0.864,2.393-2.353,4.369-4.461,5.931C984.215,191.124,981.566,191.903,978.377,191.903z M984.507,169.753
			c-1.628-1.577-3.646-2.368-6.055-2.368s-4.411,0.773-6.006,2.319c-1.595,1.544-2.477,3.662-2.642,6.354h17.192
			C986.964,173.433,986.134,171.331,984.507,169.753z"/>
	</g>
</g>
<path fill="#07A7EC" d="M1034.521,177.692c0,3.369-1.176,6.228-3.517,8.566c-2.342,2.343-5.175,3.514-8.498,3.514
	c-3.321,0-6.159-1.171-8.496-3.514c-2.345-2.34-3.517-5.197-3.517-8.566c0-3.373,1.172-6.228,3.517-8.569
	c2.337-2.342,5.175-3.515,8.496-3.515c3.323,0,6.156,1.173,8.498,3.515C1033.346,171.465,1034.521,174.319,1034.521,177.692z"/>
</svg>
